<svg xmlns="http://www.w3.org/2000/svg" viewBox="0 0 56 56" fill="none">
  <rect width="56" height="56" rx="8" fill="#24292f"/>
  <path fill-rule="evenodd" clip-rule="evenodd" d="M28 10C17.5066 10 9 18.5066 9 29C9 37.4264 14.4264 44.5656 21.8876 47.0418C22.8376 47.2078 23.186 46.6296 23.186 46.1304C23.186 45.6826 23.1688 44.3788 23.16 42.6612C17.871 43.7424 16.7586 40.1944 16.7586 40.1944C15.8944 37.9938 14.6452 37.4156 14.6452 37.4156C12.9104 36.2314 14.7734 36.2572 14.7734 36.2572C16.692 36.3888 17.7024 38.2174 17.7024 38.2174C19.4028 41.104 22.1312 40.3006 23.2296 39.8184C23.4042 38.5232 23.9222 37.6884 24.4918 37.2148C20.2654 36.7412 15.8256 35.0064 15.8256 27.6474C15.8256 25.5672 16.5602 23.8668 17.7368 22.5374C17.5364 22.0552 16.8878 20.1234 17.9282 17.5184C17.9282 17.5184 19.5254 17.0018 23.1428 19.4522C24.6598 19.0214 26.3344 18.806 28 18.7974C29.6656 18.806 31.3402 19.0214 32.8572 19.4522C36.4746 17.0018 38.0632 17.5184 38.0632 17.5184C39.1122 20.1234 38.4636 22.0552 38.2632 22.5374C39.4398 23.8668 40.1744 25.5672 40.1744 27.6474C40.1744 35.0236 35.726 36.733 31.4824 37.1894C32.1912 37.7848 32.8228 38.958 32.8228 40.7436C32.8228 43.2972 32.8056 45.3602 32.8056 46.1304C32.8056 46.6296 33.1454 47.216 34.1126 47.0332C41.5824 44.5484 47 37.4178 47 29C47 18.5066 38.4934 10 28 10Z" fill="white"/>
  <path d="M14 42L20 36" stroke="#58a6ff" stroke-width="2" stroke-linecap="round"/>
  <path d="M20 42L14 36" stroke="#58a6ff" stroke-width="2" stroke-linecap="round"/>
  <path d="M44 16L38 22" stroke="#3fb950" stroke-width="2" stroke-linecap="round"/>
  <path d="M41 16L41 22L47 22" stroke="#3fb950" stroke-width="2" stroke-linecap="round" stroke-linejoin="round"/>
</svg>
